<svg class="socIcon ee" version="1.1" id="Layer_1" xmlns="http://www.w3.org/2000/svg" xmlns:xlink="http://www.w3.org/1999/xlink" x="0px" y="0px" width="40px" height="40px" viewBox="0 0 40 40" enable-background="new 0 0 40 40" xml:space="preserve">
<path d="M20,2.08C10.1,2.09,2.08,10.12,2.08,20.02s8,17.9,17.9,17.9c9.91,0,17.94-8.03,17.94-17.94C37.96,10.11,29.89,2.11,20,2.08z
	 M19.23,31.01c-6.16,0-11.01-4.93-11.01-11.01S13.07,8.99,19.23,8.99V31.01z M25.6,30.89c-2.59,0-4.689-2.1-4.689-4.68
	c0-2.6,2.1-4.7,4.689-4.7c2.591,0,4.69,2.101,4.69,4.7C30.29,28.79,28.19,30.89,25.6,30.89z M20.71,20.56V8.99
	c6.16-0.01,11.04,4.95,11.04,11.04c0,0.17,0.03,0.4,0.03,0.53H20.71z"/>
</svg>
