 <svg class="socIcon face" xmlns="http://www.w3.org/2000/svg" xmlns:xlink="http://www.w3.org/1999/xlink" version="1.1" x="0px" y="0px" width="40px" height="40px" viewBox="0 0 40 40" enable-background="new 0 0 40 40" xml:space="preserve"><path d="M20.018 2.081c-9.905 0-17.936 8.032-17.936 17.938c0 9.9 8 17.9 17.9 17.9 c9.906 0 17.938-8.028 17.938-17.936c0.035-9.885-8.043-17.885-17.943-17.902H20.018z M24.764 19.943h-3.104c0 5 0 11.1 0 11.1 h-4.604c0 0 0-6.051 0-11.076h-2.188v-3.911h2.188v-2.559c0-1.812 0.861-4.645 4.646-4.645l3.407 0.013v3.799c0 0-2.071 0-2.476 0 c-0.402 0-0.976 0.202-0.976 1.063v2.304h3.508L24.764 19.943z" class="style0"/></svg>