 <svg class="socIcon linked" xmlns="http://www.w3.org/2000/svg" xmlns:xlink="http://www.w3.org/1999/xlink" version="1.1" x="0px" y="0px" width="40px" height="40px" viewBox="0 0 40 40" enable-background="new 0 0 40 40" xml:space="preserve"><path d="M20.183 2.083c-9.898 0-17.931 8.04-17.931 17.94s8 17.9 17.9 17.9c9.91 0 17.939-8.021 17.939-17.93 C38.123 10.1 30.1 2.1 20.2 2.083H20.183z M14.903 29.273h-4.15v-12.48h4.15V29.273z M12.823 15.083h-0.03 c-1.39 0-2.29-0.96-2.29-2.16c0-1.22 0.932-2.15 2.352-2.15s2.289 0.9 2.3 2.1C15.173 14.1 14.3 15.1 12.8 15.083H12.823z M29.862 29.273h-4.149v-6.681c0-1.68-0.601-2.82-2.101-2.82c-1.139 0-1.829 0.77-2.129 1.52c-0.11 0.27-0.131 0.63-0.131 1 v6.971h-4.149c0 0 0.05-11.311 0-12.48h4.149v1.77c0.551-0.86 1.529-2.07 3.739-2.07c2.729 0 4.8 1.8 4.8 5.62v7.16H29.862z M21.353 18.603v-0.04c-0.01 0.01-0.021 0.02-0.028 0h0.028V18.603z" class="style0"/></svg>