<svg class="huey" viewBox="0 0 612 381.6">
<circle class="hue dot"fill="#F6513D" cx="524.3" cy="301.7" r="35"/>
<path class="hue hu" fill="#34394C" d="M299.8,300.709c0,19.3,15.7,35,35,35s35-15.67,35-35v-91c0-19.33-15.67-35-35-35s-35,15.67-35,35V300.709z"
	/>
<path class="hue hu" fill="#34394C" d="M192.8,264.209v71c-40,0-72-32.428-72-71.748v-17.252v-73.045c40,0,72,32.399,72,71.748V264.209z"/>
<path class="hue hu" fill="#34394C" d="M288.8,264.209v71c-40,0-72-32.428-72-71.748v-17.252v-73.045c40,0,72,32.399,72,71.748V264.209z"/>
<path class="hue hu" fill="#34394C" d="M109.8,29.8v72.409l-0.76,199.6c0,19.32-16.54,33.9-35.88,33.9c-4.801,0-9.3-0.961-13.44-2.719
	c-0.16-0.062-0.29-0.142-0.45-0.201c-0.039-0.021-0.044-0.021-0.085-0.041c-0.881-0.359-1.771-0.799-2.611-1.258
	c-0.041-0.021-0.057-0.041-0.098-0.062l-0.117-0.059c-0.02,0-0.019-0.021-0.04-0.021c-0.92-0.52-1.839-1.061-2.698-1.68
	c-0.221-0.16-0.439-0.301-0.66-0.461c-0.699-0.48-1.359-1-2.02-1.539c-0.02-0.021-0.041-0.041-0.061-0.062
	c-0.16-0.118-0.299-0.26-0.439-0.381c-0.699-0.6-1.381-1.219-2.02-1.879c-0.84-0.84-1.641-1.721-2.381-2.641
	c-0.799-1-1.539-2.039-2.221-3.121c-0.359-0.539-0.699-1.098-1.02-1.66c-0.359-0.639-0.719-1.299-1.02-1.979
	c-0.279-0.541-0.52-1.101-0.76-1.66c-0.381-0.9-0.721-1.82-1.02-2.74c-0.602-1.84-1.281-3.719-1.58-5.66
	c-0.24-1.699-0.621-3.42-0.621-5.18v-3.601l0.16-195.399c0-10.16,2.3-19.92,6.2-28.801c4.18-9.56,10.419-18.101,18.06-25.039
	c1.92-1.74,3.95-3.359,6.03-4.879c1.92-1.423,3.954-2.742,6.015-3.98c1.939-1.141,3.947-2.201,6.008-3.16
	c1.961-0.922,3.965-1.74,6.004-2.479c1.961-0.72,3.963-1.34,6.002-1.879c1.961-0.521,3.981-0.941,6.001-1.281
	c1.98-0.359,3.981-0.304,6.001-0.464c1.859-0.16,3.8,0.1,5.7,0.055L109.8,29.8L109.8,29.8z"/>
<path class="hue hu" fill="#34394C" d="M476.8,337.572c-46,0-82.17-36.786-82.17-82.163c0-45.38,36.17-82.168,82.17-82.168V337.572z"/>
<path class="hue hu" fill="#34394C" d="M570.2,255.704c0,1.3,0.2,3.1,0.2,4.096H487.8v-86.552C533.8,173.2,570.2,210.3,570.2,255.704z"/>
</svg>
