 <svg class="socIcon pinterest" xmlns="http://www.w3.org/2000/svg" xmlns:xlink="http://www.w3.org/1999/xlink" version="1.1" x="0px" y="0px" width="40px" height="40px" viewBox="0 0 40 40" enable-background="new 0 0 40 40" xml:space="preserve"><g><path d="M19.674 2.083c-9.905 0-17.936 8.029-17.936 17.936c0 7.3 4.4 13.7 10.7 16.4 c-0.051-1.253-0.009-2.755 0.312-4.118c0.345-1.456 2.307-9.771 2.307-9.771s-0.572-1.146-0.572-2.838 c0-2.657 1.54-4.642 3.459-4.642c1.631 0 2.4 1.2 2.4 2.691c0 1.641-1.047 4.093-1.584 6.4c-0.449 1.9 1 3.5 2.8 3.5 c3.397 0 5.687-4.364 5.687-9.535c0-3.931-2.647-6.874-7.463-6.874c-5.441 0-8.83 4.057-8.83 8.589c0 1.6 0.5 2.7 1.2 3.5 c0.331 0.4 0.4 0.6 0.3 1c-0.086 0.33-0.282 1.125-0.364 1.439c-0.12 0.455-0.488 0.617-0.898 0.4 c-2.506-1.022-3.673-3.768-3.673-6.853c0-5.094 4.296-11.204 12.818-11.204c6.849 0 11.4 5 11.4 10.3 c0 7.035-3.91 12.292-9.676 12.3c-1.938 0-3.759-1.049-4.382-2.235c0 0-1.042 4.132-1.262 4.9 c-0.38 1.383-1.124 2.766-1.806 3.801c1.613 0.5 3.3 0.7 5.1 0.736c9.903 0 17.935-8.029 17.935-17.937 C37.607 10.1 29.6 2.1 19.7 2.083H19.674z" class="style0"/></g></svg>