<svg class="socIcon twitter" xmlns="http://www.w3.org/2000/svg" xmlns:xlink="http://www.w3.org/1999/xlink" version="1.1" x="0px" y="0px" width="40px" height="40px" viewBox="0 0 40 40" enable-background="new 0 0 40 40" xml:space="preserve"><path d="M20.158 2.083c-9.904 0-17.936 8.031-17.936 17.936c0 9.9 8 17.9 17.9 17.9 c9.905 0 17.937-8.028 17.937-17.936C38.094 10.1 30.1 2.1 20.2 2.083H20.158z M29.195 16.404c0.008 0.2 0 0.4 0 0.6 c0 5.973-4.547 12.861-12.859 12.861c-2.553 0-4.93-0.748-6.93-2.031c0.354 0 0.7 0.1 1.1 0.1c2.119 0 4.068-0.723 5.615-1.934 c-1.979-0.037-3.647-1.344-4.223-3.141c0.275 0.1 0.6 0.1 0.9 0.1c0.412 0 0.812-0.055 1.19-0.158 c-2.068-0.416-3.626-2.244-3.626-4.432c0-0.02 0-0.039 0.001-0.059c0.609 0.3 1.3 0.5 2 0.566c-1.213-0.812-2.011-2.195-2.011-3.764 c0-0.828 0.223-1.604 0.612-2.271c2.229 2.7 5.6 4.5 9.3 4.723c-0.077-0.332-0.117-0.676-0.117-1.031c0-2.496 2.024-4.52 4.52-4.52 c1.301 0 2.5 0.5 3.3 1.428c1.03-0.201 1.997-0.58 2.87-1.098c-0.338 1.057-1.055 1.941-1.987 2.5 c0.916-0.109 1.787-0.354 2.598-0.713C30.844 15 30.1 15.8 29.2 16.404H29.195z" class="style0"/></svg>